<?xml version="1.0" encoding="UTF-8"?>
<svg id="Layer_1" data-name="Layer 1" xmlns="http://www.w3.org/2000/svg" viewBox="0 0 27.61 18.74">
  <defs>
    <style>
      .cls-1 {
        fill: #fff;
      }
    </style>
  </defs>
  <path class="cls-1" d="m27.61,18.74H0V0h27.61v18.74ZM1.22,15.31c0,.69.02,1.34,0,1.99-.01.33.1.43.42.43,1.25-.01,2.5,0,3.75,0,.74,0,1.49,0,2.23,0,.23,0,.35-.07.35-.33-.01-.57,0-1.15,0-1.72,0-.26-.07-.39-.37-.37-.41.03-.82,0-1.23,0-.19,0-.3-.05-.29-.27,0-.73,0-1.46,0-2.19,0-.19.08-.26.26-.26,1.69,0,3.38,0,5.06.01.1,0,.25.11.28.2.16.44.31.85.67,1.19.41.39.87.66,1.43.67,1.21.03,2.43,0,3.65.01.44,0,.72.3.69.71-.02.34-.29.56-.71.56-1.77,0-3.53-.03-5.3-.04-.23,0-.37.04-.35.31.02.27,0,.54,0,.81q0,.81.8.81c1.62,0,3.24.02,4.86-.02.42-.01.9-.13,1.26-.36.84-.54,1.2-1.36,1.1-2.37-.08-.78-.4-1.43-1.04-1.89-.42-.29-.91-.4-1.43-.41-1.01,0-2.03,0-3.04,0-.19,0-.38-.04-.56-.08-.3-.07-.4-.3-.41-.58,0-.27.16-.45.41-.5.33-.07.68-.13,1.02-.14,1-.02,2-.03,3,0,.5.01.87-.23,1.23-.51.93-.73,1.05-2.57.37-3.45-.5-.65-1.12-1-1.92-1.01-1.76-.02-3.51,0-5.27,0-.12,0-.24,0-.39,0,0,.43,0,.82,0,1.21,0,.66,0,.66.66.66,1.65,0,3.31,0,4.96,0,.52,0,.66.14.66.65,0,.46-.13.57-.65.58-1.21.02-2.42.04-3.64.07-.42,0-.8.15-1.14.41-.07.05-.15.11-.23.11-.53,0-1.05-.04-1.58-.04-.26,0-.35-.11-.34-.34.01-.29.06-.58.06-.87,0-2.47,0-4.94,0-7.42,0-.3-.12-.44-.44-.43-1.32.01-2.63,0-3.95,0-.1,0-.19.01-.32.02,0,.71,0,1.39,0,2.07,0,.23.15.24.31.25.38,0,.77,0,1.15,0,.43,0,.44,0,.44.43,0,1.97,0,3.93,0,5.9,0,.11-.01.22-.02.34h-1.61c0-.13-.02-.24-.02-.35,0-1.01,0-2.02,0-3.03,0-.51,0-.51-.51-.51-1.28,0-2.57,0-3.85,0-.27,0-.36.1-.35.35,0,.53.02,1.05,0,1.58-.02.34.14.43.44.43.4,0,.81.01,1.22,0,.26-.01.35.07.35.34,0,2.01,0,4.02,0,6.04,0,.24-.07.34-.33.33-.58-.02-1.17,0-1.81,0Zm23.43,1.18c1.36-.12,2.34-1.02,2.32-2.32-.02-1.4-.95-2.35-2.42-2.39-1.15-.03-2.31,1.05-2.29,2.3.02,1.35.94,2.35,2.39,2.41Z"/>
  <path class="cls-1" d="m1.22,15.31c.64,0,1.22-.01,1.81,0,.26,0,.33-.09.33-.33,0-2.01,0-4.02,0-6.04,0-.27-.09-.35-.35-.34-.4.02-.81,0-1.22,0-.3,0-.45-.09-.44-.43.02-.52.01-1.05,0-1.58,0-.25.08-.35.35-.35,1.28.01,2.57,0,3.85,0,.51,0,.51,0,.51.51,0,1.01,0,2.02,0,3.03,0,.11,0,.22.02.35h1.61c0-.12.02-.23.02-.34,0-1.97,0-3.93,0-5.9,0-.43,0-.43-.44-.43-.38,0-.77,0-1.15,0-.16,0-.32-.01-.31-.25,0-.68,0-1.37,0-2.07.12,0,.22-.02.32-.02,1.32,0,2.63,0,3.95,0,.33,0,.44.13.44.43,0,2.47,0,4.94,0,7.42,0,.29-.04.58-.06.87,0,.23.08.34.34.34.53,0,1.05.03,1.58.04.08,0,.16-.06.23-.11.34-.25.72-.4,1.14-.41,1.21-.03,2.42-.05,3.64-.07.51,0,.65-.12.65-.58,0-.51-.14-.65-.66-.65-1.65,0-3.31,0-4.96,0-.66,0-.66,0-.66-.66,0-.39,0-.78,0-1.21.15,0,.27,0,.39,0,1.76,0,3.51-.01,5.27,0,.8,0,1.41.36,1.92,1.01.68.89.56,2.73-.37,3.45-.36.28-.72.52-1.23.51-1-.03-2-.02-3,0-.34,0-.68.07-1.02.14-.25.05-.42.23-.41.5,0,.28.11.51.41.58.18.04.37.08.56.08,1.01,0,2.03,0,3.04,0,.51,0,1.01.11,1.43.41.65.45.96,1.11,1.04,1.89.1,1.01-.25,1.83-1.1,2.37-.35.22-.83.35-1.26.36-1.62.04-3.24.02-4.86.02q-.8,0-.8-.81c0-.27.02-.54,0-.81-.02-.27.12-.32.35-.31,1.77.02,3.53.04,5.3.04.42,0,.69-.23.71-.56.03-.41-.25-.71-.69-.71-1.22,0-2.43.02-3.65-.01-.56-.01-1.01-.28-1.43-.67-.36-.34-.51-.76-.67-1.19-.03-.09-.18-.2-.28-.2-1.69-.01-3.38,0-5.06-.01-.18,0-.26.07-.26.26,0,.73,0,1.46,0,2.19,0,.21.1.27.29.27.41,0,.82.02,1.23,0,.29-.02.37.11.37.37,0,.57-.01,1.15,0,1.72,0,.26-.12.33-.35.33-.74,0-1.49,0-2.23,0-1.25,0-2.5,0-3.75,0-.32,0-.43-.1-.42-.43.02-.65,0-1.3,0-1.99Z"/>
  <path class="cls-1" d="m24.65,16.49c-1.45-.06-2.37-1.06-2.39-2.41-.02-1.25,1.14-2.33,2.29-2.3,1.46.04,2.4.99,2.42,2.39.02,1.31-.96,2.2-2.32,2.32Z"/>
</svg>