<?xml version="1.0" encoding="UTF-8"?>
<svg id="Capa_1" data-name="Capa 1" xmlns="http://www.w3.org/2000/svg" viewBox="0 0 445.94 443.66">
  <path d="m445.94,222.97C445.94,100.02,345.91,0,222.97,0S0,100.02,0,222.97c0,63.88,27.05,121.53,70.24,162.22,79.72,76.13,222.58,79.58,304.83.59,43.56-40.72,70.86-98.63,70.86-162.82Zm-429.42,0C16.52,109.13,109.13,16.52,222.97,16.52s206.45,92.61,206.45,206.45-92.61,206.45-206.45,206.45S16.52,336.81,16.52,222.97h0Z"/>
  <path d="m222.97,396.39c95.62,0,173.42-77.79,173.42-173.42S318.59,49.55,222.97,49.55,49.55,127.34,49.55,222.97s77.8,173.42,173.42,173.42h0Zm0-330.32c86.52,0,156.9,70.38,156.9,156.9s-70.38,156.9-156.9,156.9-156.9-70.38-156.9-156.9S136.45,66.06,222.97,66.06Z"/>
  <path d="m117.99,253.58l11.68-11.68,99.08,99.08-11.68,11.68-99.08-99.08Z"/>
  <path d="m84.96,220.54l11.68-11.68,16.51,16.51-11.68,11.68-16.51-16.51Z"/>
  <path d="m126.25,179.27l11.68-11.68,132.11,132.11-11.68,11.68L126.25,179.27Z"/>
  <path d="m283.13,253.59l11.68-11.68,16.51,16.51-11.68,11.68-16.51-16.51Z"/>
  <path d="m167.54,137.99l11.68-11.68,99.08,99.08-11.68,11.68-99.08-99.08Z"/>
  <path d="m345.88,238.46l16.38,2.05c.73-5.76,1.09-11.67,1.09-17.54h-16.52c0,5.19-.32,10.4-.96,15.49Z"/>
  <path d="m345.88,207.48l16.38-2.05c-6.28-50.39-39.48-93.56-86.65-112.64l-6.19,15.31c41.61,16.85,70.91,54.92,76.46,99.38h0Z"/>
</svg>